# xmcd
#
# Track frame offsets:
#	150
#	15079
#	29556
#	42643
#	57604
#	71585
#	86103
#	100028
#	114813
#	129073
#	143300
#	156589
#	170426
#	183352
#	196169
#	209600
#	222762
#	237520
#	252089
#	265160
#	278608
#	291842
#	305249
#	319500
#
# Disc length: 4433 seconds
#
# Revision: 4
# Processed by: cddbd v1.5.2PL0 Copyright (c) Steve Scherf et al.
# Submitted via: EasyCDDAExtractor 11.1.0.1
#
DISCID=58114f18
DTITLE=Various Artist - The Classic Years (1931-1933)
DYEAR=2003
DGENRE=Blues
TTITLE0=Blind Willie McTell wuth Ruth (Mary) Willis - Rough Alley Blues (1931)
TTITLE1=Blind Willie McTell with Ruth (Mary) Willis - Experience Blues (1931)
TTITLE2=Blind Willie McTell with Ruth (Mary) Willis - Painful Blues (1931)
TTITLE3=Blind Willie McTell - Low Rider's Blues (1931)
TTITLE4=Blind Willie McTell - Georgia Rag (1931)
TTITLE5=Blind Willie McTell with Ruth (Mary) Willis - Low Down Blues (1931)
TTITLE6=Blind Willie McTell with Ruby Glaze - Rollin' Mama Blues (1932)
TTITLE7=Blind Willie McTell with Ruby Glaze - Lonesome Day Blues (1932)
TTITLE8=Blind Willie McTell with Ruby Glaze - Mama, Let Me Scoop For You (1932
TTITLE8=)
TTITLE9=Blind Willie McTell with Ruby Glaze - Searching The Desert For The Blu
TTITLE9=es (1932)
TTITLE10=Blind Willie McTell - Warm It Up For Me (1933)
TTITLE11=Blind Willie McTell - It's Your Time To Worry (1933)
TTITLE12=Blind Willie McTell - It's A Good Little Thing (1933)
TTITLE13=Blind Willie McTell - You Was Born To Die (1933)
TTITLE14=Blind Willie McTell - Lord Have Mercy If You Please (1933)
TTITLE15=Blind Willie McTell - Don't You See How This World Made A Change (193
TTITLE15=3)
TTITLE16=Blind Willie McTell - Savannah Mama (1933)
TTITLE17=Blind Willie McTell - Broke Down Engine (1933)
TTITLE18=Blind Willie McTell - Broke Down Engine No 2 (1933)
TTITLE19=Blind Willie McTell - My Baby's Gone (1933)
TTITLE20=Blind Willie McTell - Love-Main' Mama (1933)
TTITLE21=Blind Willie McTell - Death Room Blues (1933)
TTITLE22=Blind Willie McTell - Death Cell Blues (1933)
TTITLE23=Blind Willie McTell - Lord, Send Me An Angel (1933)
EXTD=YEAR: 2003
EXTT0=
EXTT1=
EXTT2=
EXTT3=
EXTT4=
EXTT5=
EXTT6=
EXTT7=
EXTT8=
EXTT9=
EXTT10=
EXTT11=
EXTT12=
EXTT13=
EXTT14=
EXTT15=
EXTT16=
EXTT17=
EXTT18=
EXTT19=
EXTT20=
EXTT21=
EXTT22=
EXTT23=
PLAYORDER=
